<?xml version="1.0" encoding="UTF-8" standalone="no"?>
<!-- Created with Inkscape (http://www.inkscape.org/) -->

<svg
   width="7.6687579mm"
   height="7.6635909mm"
   viewBox="0 0 7.6687579 7.6635909"
   version="1.1"
   id="svg1"
   inkscape:version="1.3.2 (091e20e, 2023-11-25, custom)"
   sodipodi:docname="i-button.svg"
   xmlns:inkscape="http://www.inkscape.org/namespaces/inkscape"
   xmlns:sodipodi="http://sodipodi.sourceforge.net/DTD/sodipodi-0.dtd"
   xmlns="http://www.w3.org/2000/svg"
   xmlns:svg="http://www.w3.org/2000/svg">
  <sodipodi:namedview
     id="namedview1"
     pagecolor="#ffffff"
     bordercolor="#666666"
     borderopacity="1.0"
     inkscape:showpageshadow="2"
     inkscape:pageopacity="0.0"
     inkscape:pagecheckerboard="true"
     inkscape:deskcolor="#d1d1d1"
     inkscape:document-units="mm"
     inkscape:zoom="11.822492"
     inkscape:cx="4.6521495"
     inkscape:cy="16.705446"
     inkscape:window-width="3440"
     inkscape:window-height="1369"
     inkscape:window-x="1912"
     inkscape:window-y="-8"
     inkscape:window-maximized="1"
     inkscape:current-layer="layer1" />
  <defs
     id="defs1" />
  <g
     inkscape:label="Layer 1"
     inkscape:groupmode="layer"
     id="layer1"
     transform="translate(-76.206571,-87.362665)">
    <path
       style="font-size:10.5833px;line-height:1.25;font-family:Perpetua;-inkscape-font-specification:Perpetua;text-align:center;letter-spacing:0px;word-spacing:0px;text-anchor:middle;fill:#808080;stroke-width:0.264583"
       d="m 80.903943,89.243682 q 0,0.335895 -0.258381,0.573606 -0.253214,0.237711 -0.60978,0.237711 -0.361734,0 -0.614948,-0.237711 -0.253213,-0.237711 -0.253213,-0.573606 0,-0.335896 0.253213,-0.573607 0.253214,-0.237711 0.614948,-0.237711 0.356566,0 0.60978,0.237711 0.258381,0.237711 0.258381,0.573607 z m -0.160196,4.72321 h -1.421098 v -3.410633 h 1.421098 z m -4.537176,-2.769848 q 0,-1.591629 1.126542,-2.713004 1.126543,-1.121375 2.702669,-1.121375 1.591629,0 2.713004,1.131711 1.126543,1.126542 1.126543,2.702668 0,1.591629 -1.131711,2.713004 -1.13171,1.116208 -2.707836,1.116208 -1.591629,0 -2.713004,-1.126543 -1.116207,-1.126542 -1.116207,-2.702669 z m 0.640785,0 q 0,1.322913 0.930173,2.258253 0.935341,0.930173 2.258253,0.930173 1.32808,0 2.26342,-0.93534 0.935341,-0.940508 0.935341,-2.253086 0,-1.32808 -0.940508,-2.258252 -0.940508,-0.935341 -2.258253,-0.935341 -1.32808,0 -2.258253,0.940508 -0.930173,0.935341 -0.930173,2.253085 z"
       id="text2"
       aria-label="🛈" />
  </g>
</svg>
